# xmcd
#
# Track frame offsets:
#	150
#	12298
#	24657
#	37714
#	49413
#	60276
#	70080
#	78438
#	94637
#	105879
#	120077
#	134451
#	144556
#	155178
#
# Disc length: 2182 seconds
#
# Revision: 0
# Processed by: cddbd v1.5.2PL0 Copyright (c) Steve Scherf et al.
# Submitted via: EasyCDDAExtractor 16.0.6.1
#
DISCID=a808840e
DTITLE=Γαβριήλ Μαρίνος ή Μαρινάκης - Τα κειμήλια του Μαρινάκη
DYEAR=1900
DGENRE=Ρεμπέτικη
TTITLE0=Γαβριήλ Μαρίνος ή Μαρινάκης - Ο πρωθυπουργός [Μάρκος Βαμβακάρης]
TTITLE1=Δελή Κορίνα - Παιδιά της πιάτσας [Μαρίνος Γαβριήλ]
TTITLE2=Γαβριήλ Μαρίνος ή Μαρινάκης - Ο φυγουρατζής [Αναστασία Δελιά]
TTITLE3=Δελή Κορίνα - Μέσ' στην διπλή μου την ζωή [Μαρίκα Λούρου]
TTITLE4=Γαβριήλ Μαρίνος ή Μαρινάκης - Το πορτοφόλι [Σπύρος Περιστέρης]
TTITLE5=Γαβριήλ Μαρίνος ή Μαρινάκης - Τι γυρεύουν τέτοια ώρα [Μαρίνος Γαβριήλ]
TTITLE6=Γαβριήλ Μαρίνος ή Μαρινάκης-χορωδία - Το καϋμένο γαϊδουράκι [Μαρίνος Γ
TTITLE6=αβριήλ]
TTITLE7=Γαβριήλ Μαρίνος ή Μαρινάκης - Αχ! Συριανό μου πέραμα [Μαρίνος Γαβριήλ]
TTITLE8=Γαβριήλ Μαρίνος ή Μαρινάκης - Νυχτώνω, ξημερώνω [Μαρίνος Γαβριήλ]
TTITLE9=Δελή Κορίνα - Βάλε μυαλό [Μαρίνος Γαβριήλ]
TTITLE10=Γαβριήλ Μαρίνος ή Μαρινάκης - Έπιασε ψιλή βροχή [Μαρίνος Γαβριήλ]
TTITLE11=Γαβριήλ Μαρίνος ή Μαρινάκης - Στα μπλε τα παραθύρια [Μάρκος Βαμβακάρη
TTITLE11=ς]
TTITLE12=Δελή Κορίνα - Χανουμάκι [Μαρίνος Γαβριήλ]
TTITLE13=Γαβριήλ Μαρίνος ή Μαρινάκης - Δημοπρατήριο [Κώστας Μπέζος]
EXTD=
EXTT0=
EXTT1=
EXTT2=
EXTT3=
EXTT4=
EXTT5=
EXTT6=
EXTT7=
EXTT8=
EXTT9=
EXTT10=
EXTT11=
EXTT12=
EXTT13=
PLAYORDER=
